<svg width="466" height="87" viewBox="0 0 466 87" fill="none" xmlns="http://www.w3.org/2000/svg">
<rect width="466" height="87" rx="23.011" fill="#1CD1B0"/>
<path d="M175.691 58L177.85 51.3665H188.347L190.506 58H197.097L187.069 28.9091H179.143L169.1 58H175.691ZM179.413 46.5653L182.992 35.5568H183.219L186.799 46.5653H179.413ZM206.536 45.3864C206.55 42.5739 208.227 40.9261 210.67 40.9261C213.099 40.9261 214.562 42.517 214.548 45.1875V58H220.599V44.108C220.599 39.0227 217.616 35.8977 213.07 35.8977C209.832 35.8977 207.488 37.4886 206.508 40.0312H206.252V36.1818H200.485V58H206.536V45.3864ZM206.465 33.4972C206.465 32.1761 207.119 31.3381 208.099 31.3381C208.852 31.3381 209.42 31.75 210.045 32.2188C210.84 32.8011 211.749 33.483 213.34 33.4688C215.911 33.4545 217.928 31.4517 217.957 27.858L214.647 27.7585C214.633 29.0653 214.05 29.946 212.957 29.9602C212.246 29.9602 211.65 29.5483 210.996 29.0795C210.144 28.4972 209.192 27.8153 207.715 27.8295C205.13 27.8438 203.099 29.8466 203.099 33.4545L206.465 33.4972ZM231.589 58.4119C234.814 58.4119 236.902 57.0057 237.967 54.9744H238.138V58H243.876V43.2841C243.876 38.0852 239.473 35.8977 234.615 35.8977C229.388 35.8977 225.95 38.3977 225.112 42.375L230.709 42.8295C231.121 41.3807 232.413 40.3153 234.587 40.3153C236.646 40.3153 237.825 41.3523 237.825 43.142V43.2273C237.825 44.6335 236.334 44.8182 232.541 45.1875C228.223 45.5852 224.345 47.0341 224.345 51.9062C224.345 56.2244 227.428 58.4119 231.589 58.4119ZM233.322 54.2358C231.462 54.2358 230.126 53.3693 230.126 51.7074C230.126 50.0028 231.533 49.1648 233.663 48.8665C234.984 48.6818 237.143 48.3693 237.868 47.8864V50.2017C237.868 52.4886 235.979 54.2358 233.322 54.2358ZM256.611 58.3551C260.134 58.3551 261.966 56.3239 262.804 54.5057H263.06V58H269.026V28.9091H262.989V39.8466H262.804C261.994 38.071 260.247 35.8977 256.597 35.8977C251.81 35.8977 247.761 39.6193 247.761 47.1193C247.761 54.4205 251.639 58.3551 256.611 58.3551ZM258.528 53.5398C255.56 53.5398 253.94 50.8977 253.94 47.0909C253.94 43.3125 255.531 40.7131 258.528 40.7131C261.469 40.7131 263.116 43.1989 263.116 47.0909C263.116 50.983 261.44 53.5398 258.528 53.5398ZM274.001 58H280.052V36.1818H274.001V58ZM277.04 33.3693C278.844 33.3693 280.322 31.9915 280.322 30.3011C280.322 28.625 278.844 27.2472 277.04 27.2472C275.251 27.2472 273.773 28.625 273.773 30.3011C273.773 31.9915 275.251 33.3693 277.04 33.3693ZM284.899 58H290.95V45.6562C290.95 42.9716 292.911 41.125 295.581 41.125C296.419 41.125 297.57 41.267 298.138 41.4517V36.0824C297.598 35.9545 296.845 35.8693 296.234 35.8693C293.791 35.8693 291.788 37.2898 290.993 39.9886H290.766V36.1818H284.899V58Z" fill="black"/>
</svg>
